# xmcd
#
# Track frame offsets: 
#        150
#        13453
#        30671
#        44971
#        58902
#        87059
#        106570
#        130084
#        152054
#        175795
#        189132
#        204105
#        223947
#        241947
#        256527
#        286524
#        309186
#
# Disc length: 4583 seconds
#
# Revision: 0
# Processed by: cddbd v1.5.2PL0 Copyright (c) Steve Scherf et al.
# Submitted via: ExactAudioCopy v0.95b3
#
DISCID=d811e511
DTITLE=Three Dog Night  - Around The World With Three Dog Night - 1973
DTITLE=FLAC
DYEAR=1900
DGENRE=
TTITLE0=One Man Band
TTITLE1=Never Been To Spain
TTITLE2=Going In Circles
TTITLE3=The Family Of Man
TTITLE4=Midnight Runaway
TTITLE5=Liar
TTITLE6=Good Feelin' 1957
TTITLE7=Organ Solo (Jimmy Greenspoon)
TTITLE8=Eli's Coming
TTITLE9=Joy To The World
TTITLE10=Black And White
TTITLE11=Pieces Of April
TTITLE12=Out In The Country
TTITLE13=Mama Told Me Not To Come
TTITLE14=Drum Solo
TTITLE15=An Old Fashioned Love Song
TTITLE16=Jam
EXTD=
EXTT0=
EXTT1=
EXTT2=
EXTT3=
EXTT4=
EXTT5=
EXTT6=
EXTT7=
EXTT8=
EXTT9=
EXTT10=
EXTT11=
EXTT12=
EXTT13=
EXTT14=
EXTT15=
EXTT16=
PLAYORDER=
